<svg width="620" height="280" viewBox="0 0 620 280" xmlns="http://www.w3.org/2000/svg" role="img">
  <title>Waypoint Gateway Collective Logo</title>

  <!-- === LEFT: GATEWAY ICON === -->

  <!-- WAYPOINT PIN -->
  <polygon points="108,22 122,22 115,37" fill="#0D6B52"/>
  <circle cx="115" cy="12" r="13" fill="#0D6B52"/>
  <circle cx="115" cy="10" r="6" fill="#E8D49A"/>

  <!-- CAPSTONE -->
  <rect x="46" y="38" width="138" height="16" rx="2" fill="#D4B46A" stroke="#8B6830" stroke-width="0.8"/>
  <line x1="92" y1="40" x2="92" y2="52" stroke="#9E7838" stroke-width="0.5"/>
  <line x1="138" y1="40" x2="138" y2="52" stroke="#9E7838" stroke-width="0.5"/>

  <!-- LEFT PILLAR -->
  <rect x="58" y="57" width="36" height="14" rx="1" fill="#E8D49A" stroke="#8B6830" stroke-width="0.8"/>
  <line x1="76" y1="59" x2="76" y2="69" stroke="#9E7838" stroke-width="0.5"/>
  <rect x="56" y="74" width="38" height="14" rx="1" fill="#BC9448" stroke="#7A5A28" stroke-width="0.8"/>
  <line x1="72" y1="76" x2="72" y2="86" stroke="#9E7838" stroke-width="0.5"/>
  <rect x="58" y="91" width="36" height="14" rx="1" fill="#D4B46A" stroke="#8B6830" stroke-width="0.8"/>
  <line x1="78" y1="93" x2="78" y2="103" stroke="#9E7838" stroke-width="0.5"/>
  <rect x="56" y="108" width="38" height="15" rx="1" fill="#E8D49A" stroke="#8B6830" stroke-width="0.8"/>
  <line x1="74" y1="110" x2="74" y2="121" stroke="#9E7838" stroke-width="0.5"/>

  <!-- RIGHT PILLAR -->
  <rect x="136" y="57" width="36" height="14" rx="1" fill="#D4B46A" stroke="#8B6830" stroke-width="0.8"/>
  <line x1="156" y1="59" x2="156" y2="69" stroke="#9E7838" stroke-width="0.5"/>
  <rect x="136" y="74" width="36" height="14" rx="1" fill="#E8D49A" stroke="#8B6830" stroke-width="0.8"/>
  <line x1="158" y1="76" x2="158" y2="86" stroke="#9E7838" stroke-width="0.5"/>
  <rect x="136" y="91" width="38" height="14" rx="1" fill="#BC9448" stroke="#7A5A28" stroke-width="0.8"/>
  <line x1="154" y1="93" x2="154" y2="103" stroke="#9E7838" stroke-width="0.5"/>
  <rect x="136" y="108" width="36" height="15" rx="1" fill="#D4B46A" stroke="#8B6830" stroke-width="0.8"/>
  <line x1="156" y1="110" x2="156" y2="121" stroke="#9E7838" stroke-width="0.5"/>

  <!-- FOUNDATION -->
  <rect x="46" y="126" width="138" height="13" rx="2" fill="#BC9448" stroke="#7A5A28" stroke-width="0.8"/>
  <line x1="100" y1="128" x2="100" y2="137" stroke="#9E7838" stroke-width="0.5"/>
  <line x1="150" y1="128" x2="150" y2="137" stroke="#9E7838" stroke-width="0.5"/>

  <!-- === DIVIDER === -->
  <line x1="210" y1="30" x2="210" y2="150" stroke="#C9973A" stroke-width="1.5"/>

  <!-- === RIGHT: WORDMARK === -->
  <text x="232" y="95" font-family="Georgia, 'Times New Roman', serif" font-size="64" font-weight="bold" fill="#1A2B4A" letter-spacing="8">WGC</text>
  <text x="234" y="118" font-family="Georgia, 'Times New Roman', serif" font-size="11" fill="#000000" letter-spacing="3.5">WAYPOINT GATEWAY COLLECTIVE</text>
  <line x1="234" y1="128" x2="540" y2="128" stroke="#C9973A" stroke-width="1.2"/>
  <text x="234" y="143" font-family="Georgia, 'Times New Roman', serif" font-size="10" fill="#000000" font-style="italic" letter-spacing="1">1 Samuel 7:12</text>
</svg>
